<svg xmlns="http://www.w3.org/2000/svg" xmlns:xlink="http://www.w3.org/1999/xlink" width="500" zoomAndPan="magnify" viewBox="0 0 375 374.999991" height="500" preserveAspectRatio="xMidYMid meet" version="1.0"><defs><clipPath id="2418f20867"><path d="M 37.140625 37.140625 L 337.855469 37.140625 L 337.855469 337.855469 L 37.140625 337.855469 Z M 37.140625 37.140625 " clip-rule="nonzero"/></clipPath><clipPath id="75199263d8"><path d="M 187.5 37.140625 C 104.457031 37.140625 37.140625 104.457031 37.140625 187.5 C 37.140625 270.539062 104.457031 337.855469 187.5 337.855469 C 270.539062 337.855469 337.855469 270.539062 337.855469 187.5 C 337.855469 104.457031 270.539062 37.140625 187.5 37.140625 Z M 187.5 37.140625 " clip-rule="nonzero"/></clipPath><clipPath id="22893fe85e"><path d="M 194.738281 114.644531 L 261.140625 114.644531 L 261.140625 181.046875 L 194.738281 181.046875 Z M 194.738281 114.644531 " clip-rule="nonzero"/></clipPath><clipPath id="f3eb4c3f69"><path d="M 227.941406 114.644531 C 209.605469 114.644531 194.738281 129.507812 194.738281 147.847656 C 194.738281 166.183594 209.605469 181.046875 227.941406 181.046875 C 246.277344 181.046875 261.140625 166.183594 261.140625 147.847656 C 261.140625 129.507812 246.277344 114.644531 227.941406 114.644531 Z M 227.941406 114.644531 " clip-rule="nonzero"/></clipPath><clipPath id="e9bffce51f"><path d="M 194.738281 193.953125 L 261.140625 193.953125 L 261.140625 260.355469 L 194.738281 260.355469 Z M 194.738281 193.953125 " clip-rule="nonzero"/></clipPath><clipPath id="38ff52cce4"><path d="M 227.941406 193.953125 C 209.605469 193.953125 194.738281 208.816406 194.738281 227.152344 C 194.738281 245.492188 209.605469 260.355469 227.941406 260.355469 C 246.277344 260.355469 261.140625 245.492188 261.140625 227.152344 C 261.140625 208.816406 246.277344 193.953125 227.941406 193.953125 Z M 227.941406 193.953125 " clip-rule="nonzero"/></clipPath><clipPath id="4fd3c6b10f"><path d="M 113.859375 193.953125 L 180.261719 193.953125 L 180.261719 260.355469 L 113.859375 260.355469 Z M 113.859375 193.953125 " clip-rule="nonzero"/></clipPath><clipPath id="16cd9af1c1"><path d="M 147.058594 193.953125 C 128.722656 193.953125 113.859375 208.816406 113.859375 227.152344 C 113.859375 245.492188 128.722656 260.355469 147.058594 260.355469 C 165.394531 260.355469 180.261719 245.492188 180.261719 227.152344 C 180.261719 208.816406 165.394531 193.953125 147.058594 193.953125 Z M 147.058594 193.953125 " clip-rule="nonzero"/></clipPath><clipPath id="8fcef29c04"><path d="M 113.859375 114.644531 L 180.261719 114.644531 L 180.261719 181.046875 L 113.859375 181.046875 Z M 113.859375 114.644531 " clip-rule="nonzero"/></clipPath><clipPath id="d747366763"><path d="M 147.058594 114.644531 C 128.722656 114.644531 113.859375 129.507812 113.859375 147.847656 C 113.859375 166.183594 128.722656 181.046875 147.058594 181.046875 C 165.394531 181.046875 180.261719 166.183594 180.261719 147.847656 C 180.261719 129.507812 165.394531 114.644531 147.058594 114.644531 Z M 147.058594 114.644531 " clip-rule="nonzero"/></clipPath></defs><path stroke-linecap="round" transform="matrix(0.53033, 0.53033, -0.53033, 0.53033, 315.290081, 255.320434)" fill="none" stroke-linejoin="miter" d="M 9.500673 9.502594 L 107.608062 9.498912 " stroke="#ffffff" stroke-width="19" stroke-opacity="1" stroke-miterlimit="4"/><path stroke-linecap="round" transform="matrix(0.53033, 0.53033, -0.53033, 0.53033, 266.180641, 303.003407)" fill="none" stroke-linejoin="miter" d="M 9.497636 9.499435 L 106.813213 9.499435 " stroke="#ffffff" stroke-width="19" stroke-opacity="1" stroke-miterlimit="4"/><path stroke-linecap="round" transform="matrix(0.53033, 0.53033, -0.53033, 0.53033, 284.152486, 288.236083)" fill="none" stroke-linejoin="miter" d="M 9.500003 9.500271 L 136.13105 9.500271 " stroke="#ffffff" stroke-width="19" stroke-opacity="1" stroke-miterlimit="4"/><path stroke-linecap="round" transform="matrix(0.53033, 0.53033, -0.53033, 0.53033, 300.412163, 273.514962)" fill="none" stroke-linejoin="miter" d="M 9.500481 9.496899 L 135.678538 9.500582 " stroke="#ffffff" stroke-width="19" stroke-opacity="1" stroke-miterlimit="4"/><path stroke-linecap="round" transform="matrix(-0.53033, 0.53033, -0.53033, -0.53033, 118.892699, 314.261199)" fill="none" stroke-linejoin="miter" d="M 9.50051 9.499531 L 109.54876 9.499531 " stroke="#ffffff" stroke-width="19" stroke-opacity="1" stroke-miterlimit="4"/><path stroke-linecap="round" transform="matrix(-0.53033, 0.53033, -0.53033, -0.53033, 70.964868, 265.39343)" fill="none" stroke-linejoin="miter" d="M 9.502809 9.500732 L 108.298891 9.500732 " stroke="#ffffff" stroke-width="19" stroke-opacity="1" stroke-miterlimit="4"/><path stroke-linecap="round" transform="matrix(-0.53033, 0.53033, -0.53033, -0.53033, 83.293257, 285.803477)" fill="none" stroke-linejoin="miter" d="M 9.499478 9.497195 L 133.025884 9.500878 " stroke="#ffffff" stroke-width="19" stroke-opacity="1" stroke-miterlimit="4"/><path stroke-linecap="round" transform="matrix(-0.53033, 0.53033, -0.53033, -0.53033, 100.302164, 299.777676)" fill="none" stroke-linejoin="miter" d="M 9.499056 9.499681 L 136.877721 9.503364 " stroke="#ffffff" stroke-width="19" stroke-opacity="1" stroke-miterlimit="4"/><g clip-path="url(#2418f20867)"><g clip-path="url(#75199263d8)"><path stroke-linecap="butt" transform="matrix(0.75, 0, 0, 0.75, 37.141123, 37.141118)" fill="none" stroke-linejoin="miter" d="M 200.478516 -0.000657495 C 89.754551 -0.000657495 -0.000663495 89.754557 -0.000663495 200.478522 C -0.000663495 311.19728 89.754551 400.952494 200.478516 400.952494 C 311.197274 400.952494 400.952488 311.19728 400.952488 200.478522 C 400.952488 89.754557 311.197274 -0.000657495 200.478516 -0.000657495 Z M 200.478516 -0.000657495 " stroke="#ffffff" stroke-width="44" stroke-opacity="1" stroke-miterlimit="4"/></g></g><g clip-path="url(#22893fe85e)"><g clip-path="url(#f3eb4c3f69)"><path fill="#ffffff" d="M 194.738281 114.644531 L 261.140625 114.644531 L 261.140625 181.046875 L 194.738281 181.046875 Z M 194.738281 114.644531 " fill-opacity="1" fill-rule="nonzero"/></g></g><g clip-path="url(#e9bffce51f)"><g clip-path="url(#38ff52cce4)"><path fill="#ffffff" d="M 194.738281 193.953125 L 261.140625 193.953125 L 261.140625 260.355469 L 194.738281 260.355469 Z M 194.738281 193.953125 " fill-opacity="1" fill-rule="nonzero"/></g></g><g clip-path="url(#4fd3c6b10f)"><g clip-path="url(#16cd9af1c1)"><path fill="#ffffff" d="M 113.859375 193.953125 L 180.261719 193.953125 L 180.261719 260.355469 L 113.859375 260.355469 Z M 113.859375 193.953125 " fill-opacity="1" fill-rule="nonzero"/></g></g><g clip-path="url(#8fcef29c04)"><g clip-path="url(#d747366763)"><path fill="#737373" d="M 113.859375 114.644531 L 180.261719 114.644531 L 180.261719 181.046875 L 113.859375 181.046875 Z M 113.859375 114.644531 " fill-opacity="1" fill-rule="nonzero"/></g></g><path stroke-linecap="round" transform="matrix(-0.515933, -0.544347, 0.544347, -0.515933, 62.092932, 121.840144)" fill="none" stroke-linejoin="miter" d="M 9.501423 9.502112 L 107.607134 9.499828 " stroke="#ffffff" stroke-width="19" stroke-opacity="1" stroke-miterlimit="4"/><path stroke-linecap="round" transform="matrix(-0.515933, -0.544347, 0.544347, -0.515933, 112.46213, 75.489847)" fill="none" stroke-linejoin="miter" d="M 9.500711 9.497745 L 106.814401 9.498265 " stroke="#ffffff" stroke-width="19" stroke-opacity="1" stroke-miterlimit="4"/><path stroke-linecap="round" transform="matrix(-0.515933, -0.544347, 0.544347, -0.515933, 94.101128, 89.770453)" fill="none" stroke-linejoin="miter" d="M 9.498596 9.498729 L 136.130986 9.50196 " stroke="#ffffff" stroke-width="19" stroke-opacity="1" stroke-miterlimit="4"/><path stroke-linecap="round" transform="matrix(-0.515933, -0.544347, 0.544347, -0.515933, 77.452931, 104.050688)" fill="none" stroke-linejoin="miter" d="M 9.501614 9.501147 L 135.6771 9.501886 " stroke="#ffffff" stroke-width="19" stroke-opacity="1" stroke-miterlimit="4"/><path stroke-linecap="round" transform="matrix(0.52039, -0.540087, 0.540087, 0.52039, 252.667195, 65.382725)" fill="none" stroke-linejoin="miter" d="M 9.500702 9.500173 L 109.551437 9.502033 " stroke="#ffffff" stroke-width="19" stroke-opacity="1" stroke-miterlimit="4"/><path stroke-linecap="round" transform="matrix(0.52039, -0.540087, 0.540087, 0.52039, 301.494273, 113.351997)" fill="none" stroke-linejoin="miter" d="M 9.502172 9.500696 L 108.296931 9.497645 " stroke="#ffffff" stroke-width="19" stroke-opacity="1" stroke-miterlimit="4"/><path stroke-linecap="round" transform="matrix(0.52039, -0.540087, 0.540087, 0.52039, 288.788981, 93.17445)" fill="none" stroke-linejoin="miter" d="M 9.498867 9.50066 L 133.024483 9.500206 " stroke="#ffffff" stroke-width="19" stroke-opacity="1" stroke-miterlimit="4"/><path stroke-linecap="round" transform="matrix(0.52039, -0.540087, 0.540087, 0.52039, 271.523511, 79.518496)" fill="none" stroke-linejoin="miter" d="M 9.499008 9.500236 L 136.877586 9.497677 " stroke="#ffffff" stroke-width="19" stroke-opacity="1" stroke-miterlimit="4"/></svg>